<svg width="40" height="51" viewBox="0 0 40 51" fill="none" xmlns="http://www.w3.org/2000/svg">
<path id="Vector" d="M4.91667 50.1089C3.56459 50.1089 2.40671 49.6179 1.44305 48.6357C0.479379 47.6536 -0.00163472 46.4744 4.17374e-06 45.098V15.0327C4.17374e-06 13.6547 0.481837 12.4746 1.4455 11.4925C2.40917 10.5103 3.56623 10.0201 4.91667 10.0218H9.83334C9.83334 7.2658 10.7962 4.9065 12.7219 2.9439C14.6476 0.9813 16.9625 0 19.6667 0C22.3708 0 24.6858 0.9813 26.6115 2.9439C28.5372 4.9065 29.5 7.2658 29.5 10.0218H34.4167C35.7688 10.0218 36.9266 10.5129 37.8903 11.495C38.854 12.4771 39.335 13.6564 39.3333 15.0327V45.098C39.3333 46.476 38.8515 47.6561 37.8878 48.6382C36.9242 49.6204 35.7671 50.1106 34.4167 50.1089H4.91667ZM4.91667 45.098H34.4167V15.0327H29.5V20.0436C29.5 20.7535 29.264 21.3489 28.792 21.83C28.32 22.311 27.7366 22.5507 27.0417 22.549C26.3451 22.549 25.7609 22.3085 25.2889 21.8275C24.8169 21.3464 24.5817 20.7518 24.5833 20.0436V15.0327H14.75V20.0436C14.75 20.7535 14.514 21.3489 14.042 21.83C13.57 22.311 12.9866 22.5507 12.2917 22.549C11.5951 22.549 11.0109 22.3085 10.5389 21.8275C10.0669 21.3464 9.8317 20.7518 9.83334 20.0436V15.0327H4.91667V45.098ZM14.75 10.0218H24.5833C24.5833 8.64379 24.1015 7.46373 23.1378 6.48159C22.1742 5.49945 21.0171 5.00922 19.6667 5.01089C18.3146 5.01089 17.1567 5.50196 16.193 6.4841C15.2294 7.46623 14.7484 8.64546 14.75 10.0218Z" fill="white"/>
</svg>
