<svg width="49" height="53" viewBox="0 0 49 53" fill="none" xmlns="http://www.w3.org/2000/svg">
<g id="mdi:cards-heart-outline">
<path id="Vector" d="M24.7041 40.9646L24.4999 41.1854L24.2753 40.9646C14.5774 31.4467 8.16658 25.1529 8.16658 18.7708C8.16658 14.3542 11.2291 11.0417 15.3124 11.0417C18.4566 11.0417 21.5191 13.25 22.6012 16.2533H26.3987C27.4808 13.25 30.5432 11.0417 33.6874 11.0417C37.7707 11.0417 40.8332 14.3542 40.8332 18.7708C40.8332 25.1529 34.4224 31.4467 24.7041 40.9646ZM33.6874 6.625C30.1349 6.625 26.7253 8.41375 24.4999 11.2183C22.2745 8.41375 18.8649 6.625 15.3124 6.625C9.02409 6.625 4.08325 11.9471 4.08325 18.7708C4.08325 27.0963 11.0249 33.92 21.5395 44.2329L24.4999 47.1479L27.4603 44.2329C37.9749 33.92 44.9166 27.0963 44.9166 18.7708C44.9166 11.9471 39.9757 6.625 33.6874 6.625Z" fill="white"/>
</g>
</svg>
