<svg width="77" height="77" viewBox="0 0 77 77" fill="none" xmlns="http://www.w3.org/2000/svg">
<g id="ion:paw-sharp">
<path id="Vector" d="M54.7899 57.2422C54.7954 54.1252 53.0243 51.9202 51.3153 49.7893C49.8283 47.9343 48.4245 46.1818 47.9566 43.7591C46.6762 37.0538 46.0791 33.0696 40.7686 31.1973C35.4581 29.325 32.4884 32.0529 27.2787 36.4676C25.3921 38.0651 23.19 38.5487 20.8655 39.0624C18.1975 39.6514 15.4407 40.2563 13.4887 42.6807C12.7569 43.5452 12.192 44.5379 11.8227 45.6086C10.2353 50.1112 12.5299 55.0394 16.5031 56.4402C20.4763 57.841 26.417 57.6827 30.8875 59.2588C35.358 60.835 39.8128 64.6584 43.8357 66.0767C47.8587 67.4951 52.6748 65.074 54.2623 60.5714C54.6422 59.5037 54.8211 58.375 54.7899 57.2422Z" fill="white"/>
<path id="Vector_2" d="M16.6855 34.6352C20.1036 35.8404 24.1307 33.2546 25.6801 28.8599C27.2296 24.4651 25.7147 19.9255 22.2965 18.7204C18.8784 17.5153 14.8513 20.101 13.3019 24.4957C11.7525 28.8905 13.2673 33.4301 16.6855 34.6352Z" fill="white"/>
<path id="Vector_3" d="M32.8046 28.3894C36.2228 29.5945 40.2498 27.0088 41.7993 22.614C43.3487 18.2193 41.8338 13.6797 38.4157 12.4745C34.9975 11.2694 30.9705 13.8551 29.421 18.2499C27.8716 22.6447 29.3865 27.1843 32.8046 28.3894Z" fill="white"/>
<path id="Vector_4" d="M48.7192 34.0005C52.1373 35.2056 56.1644 32.6199 57.7138 28.2251C59.2632 23.8304 57.7484 19.2908 54.3302 18.0856C50.9121 16.8805 46.885 19.4662 45.3356 23.861C43.7862 28.2557 45.301 32.7953 48.7192 34.0005Z" fill="white"/>
<path id="Vector_5" d="M57.3569 48.9745C60.775 50.1796 64.8021 47.5939 66.3515 43.1991C67.9009 38.8044 66.3861 34.2648 62.9679 33.0596C59.5498 31.8545 55.5227 34.4402 53.9733 38.835C52.4238 43.2297 53.9387 47.7693 57.3569 48.9745Z" fill="white"/>
</g>
</svg>
